<?xml version="1.0" standalone="no"?>
<!DOCTYPE svg PUBLIC "-//W3C//DTD SVG 20010904//EN"
 "http://www.w3.org/TR/2001/REC-SVG-20010904/DTD/svg10.dtd">
<svg version="1.0" xmlns="http://www.w3.org/2000/svg"
 width="512.000000pt" height="512.000000pt" viewBox="0 0 512.000000 512.000000"
 preserveAspectRatio="xMidYMid meet">
<metadata>
Created by potrace 1.16, written by Peter Selinger 2001-2019
</metadata>
<g transform="translate(0.000000,512.000000) scale(0.100000,-0.100000)"
fill="#000000" stroke="none">
<path d="M0 5040 c0 -44 3 -80 6 -80 17 0 46 26 103 89 l63 71 -86 0 -86 0 0
-80z"/>
<path d="M178 5055 c-26 -36 -45 -65 -42 -65 9 0 128 31 131 34 5 5 -29 96
-36 96 -3 0 -27 -29 -53 -65z"/>
<path d="M327 5083 c8 -21 16 -39 18 -41 5 -6 73 26 112 52 l38 26 -92 0 -92
0 16 -37z"/>
<path d="M757 5109 c-10 -6 -69 -23 -130 -39 -62 -16 -146 -42 -187 -57 -61
-24 -74 -33 -72 -49 2 -10 5 -55 5 -99 2 -72 -1 -87 -30 -145 -18 -36 -43 -76
-56 -90 l-24 -25 56 -60 c63 -68 123 -174 140 -250 15 -63 18 -174 8 -242 -4
-29 -4 -53 0 -53 5 0 31 42 58 92 131 243 254 387 385 452 108 52 177 63 271
42 l74 -17 47 53 48 53 -48 3 c-145 8 -221 30 -275 80 -25 24 -26 27 -10 34
10 4 -3 4 -29 1 -62 -7 -90 1 -133 39 -64 56 -95 145 -75 217 6 22 17 47 26
56 14 13 13 15 -8 15 -13 0 -31 -5 -41 -11z"/>
<path d="M857 5103 c-2 -10 -8 -26 -12 -36 -7 -17 -6 -18 16 -5 13 7 26 14 27
15 7 3 -9 43 -18 43 -4 0 -10 -8 -13 -17z"/>
<path d="M980 5095 c-13 -13 -47 -41 -77 -62 -41 -28 -53 -42 -53 -62 0 -52
57 -110 108 -111 31 0 28 14 -18 82 l-41 59 23 19 c32 26 53 11 100 -71 50
-86 80 -130 85 -125 3 2 -3 18 -11 35 -10 18 -16 57 -17 98 0 83 -26 157 -55
161 -11 2 -30 -8 -44 -23z"/>
<path d="M1115 5103 c48 -113 46 -179 -9 -305 -5 -11 -1 -20 13 -27 22 -12
229 -36 238 -27 3 2 6 45 8 94 5 149 44 193 196 217 21 3 49 17 64 32 l26 27
45 -24 c54 -28 87 -79 119 -183 30 -98 59 -151 112 -208 l46 -49 111 0 c78 0
117 4 131 14 11 7 54 26 95 40 70 26 75 26 87 10 21 -29 15 -42 -24 -55 -65
-20 -152 -68 -163 -88 -25 -48 -10 -82 74 -173 125 -132 120 -126 107 -142
-10 -12 -6 -18 30 -37 78 -39 202 -90 207 -84 3 3 1 47 -6 98 -11 88 -16 101
-118 302 -59 116 -123 235 -142 265 -57 90 -139 187 -195 229 l-52 40 -95 -2
c-85 -2 -101 1 -153 25 l-58 27 -350 1 c-332 0 -351 -1 -344 -17z"/>
<path d="M2232 5107 c-8 -10 5 -31 54 -87 62 -72 184 -245 184 -262 0 -4 19
-8 43 -8 58 0 150 -25 209 -57 66 -36 165 -128 227 -211 108 -146 146 -266
138 -434 l-4 -98 60 93 c123 190 238 316 331 364 17 8 33 17 35 19 2 2 -31 40
-74 86 -160 171 -204 278 -156 383 34 76 87 108 239 146 25 6 59 25 80 44 l37
34 -270 1 -271 0 0 -92 c0 -109 -21 -165 -85 -222 -39 -36 -132 -87 -202 -112
-34 -12 -42 -12 -74 5 l-35 18 58 23 c214 85 273 145 274 275 0 33 -3 70 -6
83 l-6 22 -388 0 c-305 0 -390 -3 -398 -13z"/>
<path d="M3689 5081 c-42 -60 -88 -89 -179 -112 -144 -35 -180 -66 -180 -153
0 -72 41 -138 159 -259 l96 -98 180 21 c260 30 314 43 348 80 24 27 27 38 27
96 0 73 -34 189 -77 264 -15 25 -60 80 -101 123 l-75 77 -86 0 -86 -1 -26 -38z"/>
<path d="M4054 5041 c94 -116 156 -260 156 -363 0 -57 31 -84 115 -101 39 -8
73 -12 78 -10 4 2 7 52 7 111 0 82 5 116 19 147 23 51 75 97 135 120 25 10 46
23 46 30 0 7 15 42 33 79 l34 66 -343 0 -344 0 64 -79z"/>
<path d="M4880 5100 c14 -10 57 -38 97 -60 l71 -41 36 38 c19 21 36 48 36 61
0 22 -2 22 -132 22 l-133 0 25 -20z"/>
<path d="M4738 5093 c-21 -24 -58 -94 -58 -111 0 -8 8 -10 24 -6 12 3 58 11
100 17 l76 12 -59 53 c-33 28 -62 52 -64 52 -2 0 -11 -8 -19 -17z"/>
<path d="M1620 5013 c-24 -13 -57 -23 -73 -23 -32 0 -77 -21 -98 -46 -9 -11
-16 -51 -19 -115 l-5 -97 51 -21 c68 -29 106 -64 152 -141 35 -58 108 -130
133 -130 5 0 9 14 9 30 0 17 6 45 14 63 15 36 79 97 102 97 10 0 1 19 -29 58
-53 68 -67 94 -97 187 -29 90 -56 142 -78 153 -11 5 -32 0 -62 -15z"/>
<path d="M4910 4961 c-8 -5 -84 -23 -167 -39 -247 -49 -271 -72 -274 -260 l-1
-114 74 -32 c41 -18 95 -44 119 -57 l44 -25 0 61 c0 99 22 139 166 297 71 79
129 145 129 149 0 7 -47 29 -63 29 -7 0 -19 -5 -27 -9z"/>
<path d="M155 4934 c-127 -32 -155 -55 -155 -127 0 -36 5 -53 18 -63 14 -11
15 -16 5 -33 -7 -11 22 15 65 58 52 52 99 88 145 112 53 27 67 38 65 54 -4 27
-26 27 -143 -1z"/>
<path d="M4931 4764 c-161 -174 -176 -202 -167 -301 9 -106 27 -122 94 -79 20
13 88 45 150 71 103 43 112 49 112 73 0 15 -4 34 -10 42 -5 9 -5 19 1 26 6 8
-2 33 -25 77 l-35 65 35 27 c31 24 34 30 34 79 0 46 -3 54 -23 63 -22 10 -34
1 -166 -143z"/>
<path d="M302 4869 c-1 -9 -11 -20 -21 -25 -49 -22 -178 -135 -227 -198 -47
-59 -54 -74 -54 -113 l0 -44 70 37 c39 20 75 45 81 55 5 10 31 39 58 64 59 56
104 148 98 203 -2 20 -4 30 -5 21z"/>
<path d="M2510 4677 c0 -3 36 -79 80 -169 83 -169 100 -225 100 -333 0 -50 3
-64 18 -70 9 -4 83 -10 165 -13 l147 -4 0 48 c-1 61 -34 161 -80 240 -51 86
-201 234 -273 269 -52 25 -157 46 -157 32z"/>
<path d="M1386 4652 c3 -10 -9 -39 -30 -69 l-35 -51 27 -25 c36 -33 213 -107
254 -106 68 1 73 10 28 54 -23 22 -52 59 -65 81 -26 45 -85 101 -119 113 -58
22 -65 23 -60 3z"/>
<path d="M2010 4580 c-98 -7 -142 -26 -160 -70 -53 -129 118 -301 298 -299
111 1 108 11 -18 72 -63 31 -144 64 -180 73 -66 16 -90 34 -90 66 0 15 5 17
28 12 89 -19 183 -54 300 -111 73 -36 135 -64 137 -61 2 2 -32 41 -77 87 -89
93 -123 154 -115 207 5 30 3 34 -16 32 -12 0 -60 -4 -107 -8z"/>
<path d="M4190 4549 c-24 -47 -78 -84 -140 -98 -25 -5 -108 -17 -184 -26 -77
-9 -149 -20 -160 -24 -20 -8 -19 -8 4 -21 14 -7 71 -43 126 -80 l101 -67 23
55 c24 57 75 117 123 141 24 13 29 12 47 -4 20 -18 20 -19 -34 -67 -116 -103
-125 -193 -30 -298 l35 -39 82 67 c172 141 196 175 197 282 1 25 4 64 9 87 l8
41 -56 7 c-46 6 -62 13 -93 45 l-39 38 -19 -39z"/>
<path d="M182 4521 c-18 -16 -67 -44 -107 -62 l-74 -34 -1 -180 0 -180 108 3
c84 3 128 -1 197 -17 48 -12 90 -19 93 -16 3 3 8 44 10 91 8 151 -30 262 -125
364 -30 33 -58 60 -62 60 -3 -1 -21 -14 -39 -29z"/>
<path d="M978 4506 c-92 -38 -175 -107 -256 -212 -33 -43 -135 -211 -170 -281
l-21 -40 44 -31 44 -31 55 25 c30 13 85 31 123 39 78 17 290 41 297 34 3 -3 3
-15 0 -27 -4 -15 -16 -23 -38 -26 -199 -30 -291 -48 -340 -66 l-58 -22 69 -64
c37 -36 83 -72 101 -80 29 -13 36 -13 67 2 49 23 144 128 184 204 28 53 35 78
39 141 5 89 -7 133 -48 179 -17 19 -30 43 -30 54 0 28 31 78 92 148 45 52 51
56 75 47 14 -5 28 -8 30 -6 2 3 -14 12 -37 21 -59 24 -153 20 -222 -8z"/>
<path d="M1195 4427 c-31 -34 -63 -75 -72 -90 -13 -26 -13 -31 1 -46 27 -30
54 -104 62 -168 l7 -63 59 32 c36 19 74 50 96 77 20 25 40 50 44 56 4 5 8 -14
8 -43 0 -46 -4 -55 -37 -88 -36 -36 -127 -84 -161 -84 -12 0 -30 -29 -60 -91
-53 -111 -157 -224 -235 -254 -68 -26 -103 -12 -212 86 -49 44 -116 101 -147
125 l-57 44 -30 -43 c-53 -77 -139 -145 -281 -221 l-79 -42 90 -90 c50 -49
111 -118 137 -153 l46 -64 70 6 c45 4 79 13 96 25 30 23 93 103 86 110 -3 3 2
11 12 19 13 11 9 10 -14 -1 -34 -16 -69 -54 -96 -105 -16 -30 -20 -31 -55 -25
-21 4 -40 8 -42 11 -3 2 39 47 92 101 l97 97 0 63 c0 67 16 149 32 158 5 3 18
-2 28 -11 14 -13 16 -23 10 -46 -5 -16 -10 -52 -11 -81 -3 -64 -3 -64 125 -19
211 74 367 51 482 -71 25 -26 53 -48 63 -48 45 0 114 31 159 71 l48 43 -48 91
c-64 122 -77 181 -87 391 -10 207 -27 268 -94 341 -66 72 -68 72 -132 0z"/>
<path d="M4446 4423 c-19 -191 -36 -229 -139 -309 -108 -83 -206 -175 -251
-233 -57 -74 -157 -242 -150 -253 3 -4 14 -8 25 -8 41 0 185 -65 270 -122 49
-32 117 -87 152 -121 66 -65 185 -209 214 -258 21 -36 42 -43 115 -42 60 1
132 19 240 59 l66 25 5 47 c2 26 -2 76 -10 112 l-14 65 -102 2 c-107 1 -240
24 -292 50 -100 50 -134 151 -69 202 57 45 127 35 274 -37 52 -25 99 -48 104
-50 17 -9 0 133 -23 188 l-23 55 -201 1 c-233 0 -300 13 -437 85 -80 41 -92
56 -66 78 11 10 27 6 75 -18 104 -53 221 -82 362 -88 69 -3 146 -3 172 1 l47
7 -24 48 c-61 119 -71 246 -28 344 l21 47 -42 40 c-38 37 -225 140 -254 140
-7 0 -14 -23 -17 -57z"/>
<path d="M5075 4415 c-16 -8 -70 -32 -118 -54 l-88 -40 38 -58 c48 -71 123
-201 154 -265 19 -40 25 -45 41 -37 17 9 18 27 18 239 0 127 -3 230 -7 229 -5
0 -21 -7 -38 -14z"/>
<path d="M1699 4390 l23 -20 -36 -15 c-50 -21 -136 -19 -198 5 -29 11 -54 20
-56 20 -1 0 2 -10 9 -21 24 -46 31 -90 39 -264 10 -202 21 -253 80 -377 l42
-86 42 19 c56 25 152 46 256 58 77 8 87 12 105 37 110 155 254 230 393 204
l54 -10 90 59 c50 32 86 61 82 64 -5 2 -45 19 -89 36 -44 18 -108 48 -143 67
l-62 35 -53 -25 c-96 -47 -189 -44 -302 10 -65 30 -144 99 -170 148 -12 22
-30 39 -45 43 -14 3 -38 12 -55 20 l-30 14 24 -21z"/>
<path d="M3525 4360 c-121 -59 -221 -173 -379 -432 -52 -84 -93 -154 -93 -154
7 -5 383 60 422 73 33 11 66 33 100 67 68 68 86 124 92 282 l5 121 -32 36
c-18 21 -37 37 -44 37 -6 0 -38 -14 -71 -30z"/>
<path d="M3727 4180 c-11 -219 -78 -332 -233 -390 -29 -10 -158 -35 -286 -55
-269 -40 -278 -43 -278 -61 0 -12 5 -11 26 3 26 16 26 16 -10 -55 -20 -39 -36
-76 -36 -82 0 -6 20 3 44 21 53 38 69 36 145 -18 l54 -38 85 42 c134 66 275
97 455 98 l148 1 52 93 c29 50 78 126 109 168 l57 77 -49 53 c-27 29 -55 69
-62 89 -10 29 -32 49 -114 103 l-101 67 -6 -116z"/>
<path d="M4807 4249 c-51 -82 -48 -192 8 -306 36 -73 37 -74 68 -68 40 8 157
45 157 50 0 9 -185 312 -200 329 -18 18 -18 18 -33 -5z"/>
<path d="M2695 4018 c17 -56 74 -155 123 -215 45 -55 58 -64 77 -59 56 14 75
27 106 73 30 45 31 47 5 23 l-27 -24 19 44 c11 25 22 74 25 111 l4 65 -61 -8
c-57 -7 -107 -5 -229 8 -47 5 -48 4 -42 -18z"/>
<path d="M27 4004 l-27 -5 0 -113 0 -112 48 -47 47 -46 97 54 c104 60 190 130
214 177 9 17 14 31 12 33 -2 2 -39 15 -82 30 -78 26 -238 41 -309 29z"/>
<path d="M2572 3939 c-44 -34 -51 -43 -42 -59 15 -28 12 -57 -6 -64 -19 -7
-44 10 -44 30 0 23 -9 17 -75 -45 -35 -32 -87 -70 -117 -85 -57 -28 -170 -55
-228 -56 -33 0 -38 -5 -77 -72 l-42 -72 30 -33 c70 -81 105 -199 89 -300 -6
-32 -10 -61 -10 -65 0 -4 25 -12 55 -18 l55 -11 0 -44 0 -44 -46 21 c-113 49
-265 26 -348 -55 -57 -54 -70 -101 -52 -179 l13 -57 -29 -10 c-26 -9 -30 -8
-39 17 -18 44 -22 136 -10 175 30 91 150 177 277 197 31 5 59 12 62 15 3 2 7
38 10 79 5 86 -13 152 -59 216 -40 56 -138 117 -197 125 -143 18 -127 20 -179
-28 -27 -24 -57 -49 -69 -55 -26 -13 -187 -54 -324 -82 -99 -20 -258 -83 -274
-108 -3 -5 6 -36 20 -67 24 -53 26 -66 22 -151 -5 -84 -3 -94 11 -90 9 3 30 8
46 12 55 13 142 62 198 114 77 70 110 140 111 233 l1 71 33 10 c18 5 34 7 35
5 2 -2 0 -44 -3 -94 -9 -109 -32 -164 -104 -243 -96 -105 -236 -173 -358 -174
-43 0 -65 5 -88 22 l-31 22 25 -37 c14 -19 32 -55 41 -79 16 -42 17 -43 83
-55 138 -25 302 -110 386 -199 l29 -31 42 50 c89 104 125 207 125 354 0 103
-19 194 -55 264 -21 43 -22 50 -8 55 38 15 92 -77 117 -197 19 -92 20 -138 1
-240 -18 -101 -59 -188 -127 -269 -55 -64 -55 -65 -40 -94 8 -16 16 -30 17
-32 1 -2 49 25 106 60 214 129 365 150 484 68 22 -15 46 -39 54 -52 l13 -25
141 49 c78 26 178 66 222 88 85 42 129 50 139 24 9 -24 7 -34 -7 -34 -7 0 -22
-7 -33 -15 -16 -13 -17 -16 -4 -25 21 -14 71 -12 100 5 32 18 37 18 44 0 8
-21 -61 -65 -102 -65 -36 0 -71 15 -88 38 -9 13 -14 12 -40 -1 -16 -8 -89 -36
-163 -61 -74 -26 -157 -58 -185 -72 -57 -29 -169 -109 -205 -147 l-23 -25 48
-7 c95 -12 159 -28 195 -45 82 -42 203 -147 349 -301 177 -188 266 -270 346
-319 l56 -34 53 28 c67 35 163 131 206 207 19 32 37 59 40 59 7 0 29 -47 29
-64 0 -23 -76 -131 -130 -185 -36 -36 -81 -67 -139 -95 l-86 -41 -130 0 c-120
1 -137 3 -225 33 -121 42 -214 97 -301 179 l-69 65 -71 -46 c-40 -25 -103 -58
-140 -73 -64 -26 -69 -30 -69 -58 0 -53 29 -153 64 -223 44 -87 99 -149 183
-205 58 -38 78 -46 134 -51 l65 -6 53 64 c53 66 256 266 296 292 16 10 33 12
59 7 l37 -8 -70 -58 c-75 -63 -311 -301 -311 -315 0 -13 251 -122 320 -139
164 -39 396 22 566 148 66 49 83 73 21 30 -46 -31 -47 -32 -72 -14 -13 10 -25
21 -25 24 -1 22 131 100 175 103 22 1 24 7 30 88 4 47 4 105 0 128 -6 36 -10
41 -29 36 -93 -23 -283 -14 -358 17 l-33 13 25 16 c21 13 37 14 95 6 39 -5
116 -6 173 -3 87 6 102 9 102 24 0 18 -40 99 -190 385 l-94 179 -14 -41 c-19
-57 -82 -125 -140 -150 -73 -31 -138 -37 -228 -18 -153 31 -204 54 -288 133
l-77 72 26 51 c53 105 155 178 307 220 111 31 325 23 398 -15 l29 -15 33 63
c41 78 162 199 248 250 184 107 408 117 605 28 60 -27 64 -31 56 -53 -11 -29
-22 -28 -136 13 -105 38 -225 49 -314 29 -103 -22 -215 -84 -296 -163 -76 -76
-108 -128 -145 -240 l-22 -68 -22 20 c-12 11 -22 30 -23 42 -2 28 -11 35 -52
44 l-34 7 57 -59 c66 -70 107 -131 153 -232 19 -41 69 -140 112 -220 43 -80
89 -172 102 -204 17 -44 27 -56 38 -51 121 51 270 77 364 63 34 -5 67 -9 73
-9 7 0 12 21 12 55 0 30 8 77 17 105 20 61 96 178 156 241 l44 47 -90 5 c-177
10 -329 -26 -490 -118 -43 -25 -80 -45 -81 -45 -2 0 -8 8 -13 19 -9 16 -2 24
47 58 74 52 123 77 219 109 71 25 97 28 283 34 193 6 208 8 263 33 74 34 165
124 205 203 50 101 51 99 -15 114 -32 7 -115 33 -185 57 -130 46 -142 55 -118
93 8 13 15 13 56 -3 45 -16 47 -16 74 3 99 70 182 268 165 394 -17 130 -171
318 -323 395 -78 39 -159 55 -247 46 -69 -6 -74 -8 -104 -45 -17 -22 -71 -65
-120 -97 l-88 -58 57 -55 56 -56 40 18 c211 94 413 -76 431 -363 10 -158 -39
-298 -125 -356 -18 -12 -79 -36 -135 -53 -116 -36 -226 -90 -411 -198 l-129
-76 -19 24 c-10 12 -17 24 -16 25 2 2 50 31 108 65 186 110 343 188 445 221
82 26 107 39 141 73 53 53 74 119 74 237 0 146 -47 257 -136 325 -39 30 -67
33 -213 23 -29 -2 -46 1 -49 9 -7 21 -40 -55 -61 -141 -21 -82 -36 -111 -53
-101 -11 7 -2 110 19 196 16 67 16 68 -5 90 -11 13 -34 31 -50 40 l-29 17 -94
-69 c-52 -38 -97 -70 -101 -70 -4 0 -12 -26 -18 -57 -30 -150 -80 -251 -150
-302 -77 -55 -150 -51 -237 16 l-46 35 -31 -22 -31 -22 30 29 30 28 -17 34
c-22 44 -13 55 60 76 34 10 96 43 152 81 264 178 394 270 397 280 2 6 -36 37
-84 69 -49 32 -107 73 -130 91 -23 19 -46 34 -51 34 -18 0 -126 -113 -167
-175 -53 -80 -102 -203 -116 -293 -10 -60 -16 -75 -33 -82 -34 -12 -39 -1 -33
69 14 160 132 386 261 498 l33 30 -49 27 -49 28 -38 -34 c-20 -18 -49 -42 -64
-53 -23 -17 -30 -36 -47 -125 -12 -58 -37 -154 -57 -213 -29 -88 -44 -117 -80
-157 -25 -28 -55 -53 -68 -56 l-22 -6 18 -36 c10 -20 50 -104 89 -186 65 -138
69 -150 53 -162 -10 -7 -21 -14 -25 -14 -10 0 -88 150 -148 283 -80 179 -144
233 -278 231 l-73 0 3 30 c3 28 8 32 46 40 87 18 217 -36 265 -110 12 -19 27
-34 33 -34 20 0 85 81 108 134 35 80 102 346 88 346 -24 0 -322 -84 -375 -105
-125 -51 -187 -130 -187 -241 1 -65 18 -125 46 -155 13 -15 15 -22 6 -31 -18
-18 -62 18 -90 73 -20 38 -23 55 -20 130 3 71 9 93 31 131 58 99 159 151 421
216 l184 45 17 66 c9 36 27 85 40 109 13 23 18 39 12 35 -7 -4 -44 -28 -84
-54 -154 -100 -279 -90 -410 34 -29 27 -53 53 -53 56 0 3 10 12 21 19 20 13
26 10 68 -31 64 -63 104 -81 176 -81 49 0 71 5 120 32 107 59 105 53 48 116
-27 30 -69 91 -92 135 -23 45 -45 81 -49 81 -4 0 -31 -18 -60 -41z m-244 -998
c21 -11 70 -23 110 -26 50 -5 76 -13 88 -26 16 -18 15 -19 -12 -30 -42 -16
-151 -5 -183 18 -31 24 -68 83 -52 83 7 0 29 -9 49 -19z m1812 -592 c-70 -97
-196 -144 -328 -121 -37 6 -85 19 -107 28 l-39 16 29 15 c24 13 41 14 104 5
129 -18 210 5 284 80 37 37 40 38 58 22 18 -16 18 -17 -1 -45z"/>
<path d="M5075 3874 c-43 -25 -130 -54 -164 -54 -12 0 -21 -2 -21 -4 0 -2 12
-30 27 -62 22 -50 27 -74 28 -153 1 -90 2 -95 30 -118 l28 -25 12 29 c14 33
41 58 73 67 26 9 28 -1 5 -26 -19 -21 -14 -31 11 -22 14 5 16 29 16 200 0 107
-1 194 -2 193 -2 0 -21 -12 -43 -25z"/>
<path d="M2242 3873 c-41 -14 -143 -98 -162 -133 -8 -15 -4 -16 53 -8 82 12
172 56 227 112 l44 46 -59 -1 c-33 0 -79 -7 -103 -16z"/>
<path d="M0 3665 c0 -33 2 -35 20 -25 23 12 24 15 10 41 -16 30 -30 22 -30
-16z"/>
<path d="M1885 3645 c-5 -1 -44 -9 -85 -16 l-75 -12 47 -13 c26 -6 64 -21 83
-33 l35 -20 17 27 c48 78 46 72 16 71 -16 0 -32 -2 -38 -4z"/>
<path d="M4552 3588 c-36 -36 5 -87 89 -112 53 -16 241 -40 260 -34 16 5 -97
78 -191 122 -76 37 -136 46 -158 24z"/>
<path d="M880 3567 c-86 -26 -175 -67 -175 -82 0 -5 -8 -33 -18 -61 -36 -103
-119 -166 -240 -180 l-55 -7 15 -51 c8 -28 24 -74 34 -102 l19 -50 58 4 c33 2
82 -3 118 -12 34 -9 64 -16 67 -16 2 0 7 25 10 55 7 66 44 150 91 208 65 80
199 142 368 173 l92 17 -51 47 c-88 81 -192 99 -333 57z"/>
<path d="M27 3552 l-27 -28 0 -187 c0 -103 3 -187 6 -187 3 0 23 14 45 31 55
43 164 98 210 105 21 4 39 10 39 14 0 19 -97 134 -160 190 -39 34 -70 68 -70
76 0 21 -13 17 -43 -14z"/>
<path d="M3530 3573 c-76 -13 -191 -48 -256 -79 l-75 -35 23 -18 c13 -10 59
-42 103 -71 44 -29 97 -66 117 -82 l38 -30 28 21 c16 11 53 30 83 41 49 20
109 64 109 81 0 3 -21 4 -47 1 -58 -6 -52 3 28 43 51 25 66 39 90 83 l29 52
-122 -1 c-68 -1 -134 -4 -148 -6z"/>
<path d="M3842 3531 l-23 -40 93 0 c164 1 274 -55 418 -209 77 -83 99 -114
147 -212 66 -137 86 -191 103 -286 13 -71 10 -262 -5 -296 -5 -12 -1 -17 16
-20 12 -2 24 -9 27 -17 3 -10 -3 -12 -27 -9 -18 3 -31 0 -31 -6 0 -18 -58
-135 -91 -184 -16 -24 -28 -46 -26 -48 8 -9 140 122 181 180 24 33 71 117 105
185 l61 124 -39 42 c-41 44 -59 82 -44 95 4 4 29 14 54 22 69 23 124 62 159
113 31 45 64 114 58 121 -2 1 -44 -11 -93 -28 -62 -21 -118 -33 -182 -37 l-91
-6 34 -90 c19 -49 43 -110 55 -134 11 -24 18 -45 15 -48 -10 -11 -44 42 -66
104 -43 124 -70 168 -184 304 -206 245 -342 347 -527 399 -41 11 -74 20 -74
20 -1 0 -11 -18 -23 -39z"/>
<path d="M5073 3420 c-24 -11 -43 -25 -43 -33 0 -22 22 -78 29 -75 3 2 18 10
34 17 24 13 27 20 27 63 0 26 -1 48 -2 47 -2 0 -22 -9 -45 -19z"/>
<path d="M5090 3240 c-6 -11 -15 -18 -21 -15 -5 4 -9 -1 -9 -10 0 -17 12 -14
43 13 19 17 22 32 7 32 -5 0 -14 -9 -20 -20z"/>
<path d="M259 3216 c-80 -28 -156 -69 -201 -107 -39 -33 -28 -36 57 -14 69 18
128 56 153 97 33 55 59 19 28 -40 -39 -74 -114 -114 -258 -137 l-38 -6 0 -169
c0 -153 2 -170 18 -179 15 -8 25 2 67 72 66 109 172 219 242 254 54 26 56 26
69 8 8 -10 14 -21 14 -24 0 -3 -28 -22 -62 -41 -73 -42 -132 -105 -210 -225
-40 -62 -55 -92 -47 -100 6 -6 64 -10 142 -10 124 0 135 2 184 27 56 30 93 73
112 127 10 30 8 37 -18 70 -16 20 -45 65 -64 101 -43 78 -111 275 -104 301 7
24 -4 24 -84 -5z"/>
<path d="M803 3154 c-14 -30 -27 -81 -30 -113 -5 -55 -4 -58 18 -64 55 -15 68
-9 80 36 18 66 -4 197 -33 197 -5 0 -21 -25 -35 -56z"/>
<path d="M5078 3128 c-30 -16 -38 -26 -38 -47 0 -78 -117 -226 -210 -267 -22
-10 -40 -21 -40 -26 0 -12 80 -68 107 -74 38 -10 110 24 169 80 l55 51 -3 151
-3 151 -37 -19z"/>
<path d="M3165 2976 c-78 -60 -214 -145 -254 -158 l-44 -14 32 -37 c66 -74
163 -67 220 17 30 43 86 187 80 205 -2 6 -17 0 -34 -13z"/>
<path d="M503 2972 c-15 -10 39 -98 97 -159 46 -47 42 -46 126 -28 l29 7 -25
-21 c-19 -16 -21 -21 -9 -21 9 0 22 7 30 16 7 8 21 13 31 11 15 -4 17 -1 11
21 -3 15 -17 51 -30 79 -24 52 -26 53 -91 72 -79 23 -153 33 -169 23z"/>
<path d="M4478 2885 c-4 -11 -10 -36 -13 -55 -12 -60 -69 -172 -119 -233 -30
-37 -42 -59 -34 -61 88 -28 119 -36 154 -42 l42 -6 7 53 c5 30 7 90 7 134 -2
89 -34 243 -44 210z"/>
<path d="M5070 2715 c-59 -46 -129 -69 -183 -61 l-42 6 -53 -104 c-106 -210
-198 -327 -324 -413 -58 -40 -77 -47 -124 -50 -49 -2 -64 -9 -134 -58 -183
-129 -304 -337 -261 -448 8 -21 28 -36 83 -61 122 -55 114 -56 120 18 4 46 15
81 39 126 32 60 99 130 125 130 29 0 22 -24 -25 -88 -74 -99 -96 -176 -70
-250 8 -24 29 -42 89 -77 44 -25 82 -45 85 -45 9 0 5 178 -6 230 -6 28 -8 54
-4 58 17 17 47 -57 71 -174 l9 -41 80 32 c45 18 102 46 128 63 l47 30 -70 36
c-92 49 -166 74 -243 82 -56 6 -97 25 -97 45 0 4 22 10 48 14 44 6 50 10 61
41 35 96 185 253 321 335 66 40 66 40 74 95 14 103 103 216 239 303 l67 44 0
108 c0 60 -1 109 -2 109 -2 0 -23 -16 -48 -35z"/>
<path d="M576 2701 c-23 -53 -104 -125 -164 -146 -73 -26 -204 -31 -301 -11
-64 13 -86 14 -97 5 -11 -9 -14 -44 -14 -155 l0 -144 113 89 c146 116 153 124
138 157 -10 23 -9 25 11 22 17 -2 37 -30 85 -123 35 -65 69 -125 76 -132 11
-11 34 -11 134 3 l121 17 -29 24 c-16 14 -34 42 -40 63 -24 80 49 143 167 143
l64 0 -1 51 c-1 66 -22 162 -34 159 -6 -1 -30 -9 -55 -19 -45 -16 -47 -16 -95
7 -28 12 -52 24 -56 26 -3 2 -13 -15 -23 -36z"/>
<path d="M897 2647 c19 -109 16 -234 -6 -283 -39 -86 -140 -135 -323 -156 -54
-6 -98 -15 -98 -21 0 -16 175 -184 199 -192 11 -3 37 -1 58 4 21 6 99 11 174
11 l136 0 7 42 c9 58 59 147 109 196 23 22 76 63 116 91 l75 51 11 -32 c10
-29 9 -35 -9 -48 -196 -142 -245 -216 -233 -348 13 -150 143 -285 322 -337 69
-21 249 -16 325 7 l45 14 -3 45 c-5 68 -43 140 -115 215 l-66 69 -28 -18 c-15
-10 -57 -32 -93 -50 -57 -27 -74 -31 -145 -30 -89 1 -165 17 -165 36 0 7 6 19
13 26 10 11 4 12 -30 6 l-43 -7 0 36 c0 33 3 36 28 36 68 1 165 69 205 145 28
52 30 160 4 228 -10 26 -21 47 -23 47 -10 0 -150 -98 -163 -114 -15 -18 -33
-9 -52 26 -8 15 1 25 61 63 38 25 84 52 101 59 l30 13 -63 59 c-86 80 -218
147 -349 177 l-25 6 13 -72z"/>
<path d="M1735 2520 c-33 -10 -108 -49 -165 -85 -58 -36 -107 -65 -110 -65 -3
0 -6 -42 -6 -92 0 -74 -4 -103 -21 -139 -30 -67 -86 -124 -154 -158 l-59 -29
66 -7 c89 -10 153 -1 211 29 57 29 167 121 211 176 30 37 31 39 12 45 -35 11
-24 35 16 35 32 0 47 10 123 83 48 45 104 93 124 107 21 14 36 31 35 39 -2 8
-20 27 -40 44 -32 26 -47 30 -110 34 -53 2 -89 -2 -133 -17z"/>
<path d="M5075 2434 c-68 -45 -146 -127 -171 -179 -22 -46 -32 -105 -18 -105
9 0 211 139 223 154 7 9 11 42 9 85 l-3 71 -40 -26z"/>
<path d="M712 2439 c-41 -12 -49 -32 -28 -64 23 -34 66 -55 93 -44 27 10 63
65 63 97 0 20 -5 22 -47 21 -27 0 -63 -5 -81 -10z"/>
<path d="M215 2349 c-142 -119 -172 -149 -195 -192 -14 -25 -21 -49 -18 -53
22 -22 90 -5 223 55 77 35 141 65 143 66 3 3 -88 176 -91 174 -1 0 -29 -23
-62 -50z"/>
<path d="M2710 2293 c-78 -13 -196 -64 -247 -107 -26 -22 -101 -144 -91 -149
12 -7 177 -64 243 -84 93 -28 207 -28 261 0 49 25 89 70 104 117 8 23 20 49
28 56 11 11 2 24 -55 80 -37 37 -82 73 -100 80 -31 13 -89 16 -143 7z"/>
<path d="M5067 2215 c-35 -40 -68 -64 -123 -91 l-76 -36 7 -34 c7 -42 -14 -47
-42 -10 l-19 24 -83 -56 c-93 -63 -202 -175 -244 -250 l-28 -51 43 -11 c53
-14 197 -81 239 -111 l31 -22 50 54 c115 121 211 306 247 471 13 61 22 84 34
86 13 3 17 14 17 48 0 24 -1 44 -2 44 -2 0 -25 -25 -51 -55z"/>
<path d="M1754 2113 c-60 -64 -103 -114 -97 -109 19 11 114 -83 172 -173 41
-62 51 -85 51 -119 l0 -42 53 26 c28 15 64 35 78 45 l27 19 -40 79 c-49 95
-62 198 -34 265 9 22 14 41 11 44 -3 3 -35 9 -72 14 -36 4 -68 10 -71 13 -3 3
5 16 18 30 13 14 21 25 18 25 -3 0 -54 -53 -114 -117z"/>
<path d="M250 2110 c-80 -39 -151 -70 -157 -70 -7 0 -13 -5 -13 -11 0 -13 85
-146 114 -177 52 -58 153 -79 219 -46 36 19 105 71 158 122 l37 34 -72 68
c-39 37 -84 86 -101 109 -16 22 -32 40 -35 40 -3 0 -70 -31 -150 -69z"/>
<path d="M2046 2111 c-50 -55 -33 -200 32 -273 23 -27 28 -23 41 28 22 86 75
165 100 149 17 -10 13 -42 -10 -87 l-21 -41 45 37 c49 40 59 43 77 20 12 -13
2 -26 -64 -93 l-77 -78 46 -51 c110 -122 285 -202 460 -209 l100 -5 -35 29
c-90 73 -155 135 -270 257 -168 177 -256 255 -351 310 -55 31 -52 31 -73 7z"/>
<path d="M1 1758 l-1 -318 27 0 27 0 -27 -28 c-32 -33 -36 -86 -11 -133 l15
-30 40 45 c23 25 45 46 50 46 5 0 12 -11 15 -26 5 -18 1 -31 -14 -47 -11 -12
-26 -35 -32 -51 -9 -24 -8 -32 8 -50 11 -12 38 -49 61 -83 l41 -62 61 30 c125
62 377 129 486 129 l34 0 -23 41 c-29 52 -96 122 -137 143 -51 27 -123 36
-188 25 -121 -22 -141 -22 -193 -3 -58 21 -48 32 28 33 24 1 75 8 114 17 187
43 335 -24 429 -193 28 -51 40 -63 65 -68 18 -3 44 -15 58 -26 24 -19 26 -26
26 -99 0 -43 -4 -81 -8 -84 -5 -3 -23 24 -40 60 -28 56 -30 64 -14 65 14 0 14
2 -3 9 -33 14 -197 11 -284 -5 -96 -19 -210 -55 -303 -97 -67 -30 -67 -31 -53
-57 7 -14 32 -44 55 -66 l41 -40 187 -6 c103 -3 210 -11 237 -18 l50 -12 193
81 c106 44 194 80 197 80 2 0 15 4 30 10 l26 10 -31 52 c-17 29 -58 107 -92
172 -77 149 -145 223 -259 278 -128 62 -221 82 -389 82 -224 1 -311 -35 -389
-159 -50 -78 -66 -84 -57 -18 19 141 142 223 369 244 60 6 116 8 124 5 12 -5
14 -1 9 17 -3 13 -9 56 -12 95 l-7 71 -29 -22 c-72 -55 -102 -67 -164 -67
-115 0 -208 71 -279 214 -33 64 -34 71 -18 78 16 6 16 7 -3 7 -12 1 -26 11
-32 24 -8 16 -11 -60 -11 -295z"/>
<path d="M5101 1978 c-34 -117 -135 -287 -233 -394 l-40 -44 71 -66 c39 -36
71 -72 71 -80 0 -8 4 -14 8 -14 8 0 21 -26 48 -97 l9 -23 43 26 42 25 0 355
c0 195 -2 354 -3 354 -2 0 -9 -19 -16 -42z"/>
<path d="M755 1934 c-130 -27 -148 -46 -148 -146 0 -45 7 -89 17 -114 16 -38
21 -42 74 -54 73 -16 204 -63 249 -90 l35 -20 113 72 113 73 -48 51 c-51 53
-89 121 -110 192 l-13 42 -131 -1 c-72 -1 -140 -3 -151 -5z"/>
<path d="M1148 1544 l-108 -75 34 -34 c50 -49 84 -103 161 -252 37 -72 77
-143 89 -158 l21 -27 65 22 c73 24 161 69 203 104 26 21 27 26 16 44 -12 19
-8 25 32 69 25 27 54 62 64 78 44 70 75 89 75 45 0 -24 -47 -125 -66 -140 -8
-7 -11 -23 -8 -38 12 -66 -117 -167 -278 -218 -47 -14 -55 -20 -46 -31 18 -23
83 -52 140 -64 102 -22 184 4 408 132 l96 54 -63 58 c-111 104 -188 251 -200
384 l-6 65 -31 -7 c-170 -35 -348 -17 -452 46 -17 11 -33 19 -35 19 -2 -1 -52
-34 -111 -76z"/>
<path d="M3615 1520 c-22 -6 -72 -20 -111 -31 l-71 -21 -1 -123 0 -123 42 19
c88 38 167 53 296 53 104 1 138 -3 199 -22 l74 -23 93 43 c52 24 92 47 91 52
-6 17 -120 75 -251 127 -118 47 -138 51 -225 55 -53 2 -114 -1 -136 -6z"/>
<path d="M4730 1474 c-44 -31 -161 -88 -217 -104 -24 -7 -43 -19 -43 -26 0 -7
-2 -19 -5 -27 -4 -9 20 -35 67 -73 40 -32 82 -68 93 -79 11 -11 23 -19 26 -18
4 1 15 -8 25 -20 l19 -22 -22 19 c-13 11 -23 14 -23 8 0 -11 88 -92 99 -92 14
0 151 96 191 134 37 34 41 42 36 72 -16 82 -87 179 -176 238 -30 20 -28 20
-70 -10z"/>
<path d="M4285 1273 c-36 -9 -165 -65 -164 -71 0 -4 27 -29 61 -56 155 -127
300 -374 324 -555 4 -28 9 -51 12 -51 14 0 133 94 174 138 47 51 128 167 128
184 0 5 -17 29 -37 53 -38 43 -38 43 -68 27 -16 -8 -60 -17 -97 -20 -54 -4
-75 -1 -111 17 -83 40 -117 108 -117 232 0 77 -1 79 -30 94 -30 15 -40 16 -75
8z"/>
<path d="M3623 1216 c-104 -24 -179 -64 -231 -122 -84 -93 -244 -189 -392
-236 -65 -20 -95 -23 -215 -22 -154 1 -159 2 -360 92 -140 62 -120 68 -216
-63 -46 -64 -83 -119 -82 -123 1 -3 19 -11 40 -17 151 -45 283 -191 283 -312
0 -50 -10 -57 -69 -54 -26 1 -74 -7 -108 -17 -58 -18 -172 -89 -203 -127 -14
-16 -11 -17 30 -11 86 14 143 40 201 94 59 54 81 61 113 37 21 -16 106 -21
106 -6 0 5 -13 23 -30 41 -31 33 -40 70 -17 70 6 0 26 -8 42 -18 30 -18 45
-41 64 -94 7 -17 22 -30 46 -38 35 -11 36 -11 91 39 121 111 286 181 614 261
96 24 176 44 177 45 1 0 -9 29 -23 64 -14 34 -38 120 -54 191 -15 71 -31 133
-35 139 -11 18 10 12 33 -9 31 -30 47 -64 77 -171 38 -130 87 -220 169 -307
l69 -72 -17 -43 c-9 -23 -16 -49 -16 -57 1 -13 21 32 36 81 3 9 -1 32 -9 51
-12 27 -13 60 -7 164 9 134 21 200 51 271 29 69 88 153 145 210 l54 52 -38 11
c-61 18 -249 22 -319 6z"/>
<path d="M5076 1200 c-22 -20 -45 -57 -66 -108 -18 -42 -53 -115 -78 -162 -45
-81 -66 -125 -42 -87 6 9 15 17 19 17 4 0 34 -31 67 -70 32 -38 78 -83 102
-100 l42 -31 0 285 c0 157 -2 286 -5 286 -2 0 -20 -14 -39 -30z"/>
<path d="M4450 1163 c0 -70 17 -118 51 -147 38 -32 84 -41 132 -24 33 11 48
24 33 29 -2 1 -47 44 -99 95 -53 52 -101 94 -107 94 -5 0 -10 -21 -10 -47z"/>
<path d="M2 1175 c0 -16 2 -22 5 -12 2 9 2 23 0 30 -3 6 -5 -1 -5 -18z"/>
<path d="M4011 1127 c-62 -49 -120 -124 -157 -202 -39 -81 -54 -150 -54 -249
0 -39 -5 -102 -11 -141 -10 -70 -10 -70 18 -93 44 -37 122 -70 196 -83 86 -14
195 0 324 43 l92 31 13 55 c32 146 -84 407 -253 567 -35 34 -78 71 -95 83
l-32 22 -41 -33z m195 -192 c27 -8 58 -21 69 -29 18 -14 17 -15 -15 -6 -58 16
-178 11 -298 -14 l-113 -24 3 22 c7 52 238 86 354 51z"/>
<path d="M4852 1072 c-29 -27 -52 -52 -52 -58 0 -5 11 -26 24 -47 l23 -38 23
38 c39 67 63 153 42 153 -4 0 -31 -22 -60 -48z"/>
<path d="M60 1011 c0 -111 4 -118 48 -81 20 17 39 30 43 30 3 0 11 -11 17 -26
11 -23 8 -30 -38 -87 -27 -34 -50 -65 -50 -68 0 -4 15 -29 33 -55 52 -76 55
-82 32 -64 -11 8 0 -7 24 -35 57 -66 147 -220 189 -323 30 -75 41 -90 133
-180 56 -53 111 -102 122 -109 13 -7 60 -12 109 -13 l87 0 -16 43 c-8 23 -18
88 -20 147 -8 171 34 289 150 423 l63 72 -23 34 c-26 39 -25 54 3 60 11 2 28
-8 45 -28 l26 -32 64 41 c35 23 101 59 146 80 l82 40 26 -24 25 -23 -87 -42
c-95 -46 -213 -118 -213 -132 0 -4 4 -10 10 -14 5 -3 50 -73 101 -155 94 -155
137 -203 199 -220 64 -18 147 -12 215 15 54 22 67 24 89 14 15 -7 25 -17 23
-23 -2 -6 -30 -24 -62 -41 -51 -26 -70 -30 -161 -33 -97 -4 -108 -2 -160 23
-68 33 -102 75 -213 263 -46 78 -87 142 -92 142 -19 0 -104 -112 -140 -185
-45 -92 -64 -198 -51 -282 7 -41 19 -64 56 -108 26 -30 53 -55 60 -55 7 0 21
9 31 20 23 26 69 26 95 0 19 -19 33 -20 318 -20 l297 1 -30 25 c-37 31 -159
70 -246 79 -82 9 -163 -7 -245 -47 l-60 -30 -32 19 -32 20 88 41 c142 67 211
75 367 43 105 -22 179 -56 240 -112 l42 -39 344 0 344 0 41 52 c23 29 55 81
73 115 l31 62 -52 15 c-29 8 -83 17 -121 21 -65 6 -69 6 -103 -24 -78 -69
-168 -100 -302 -103 -136 -4 -138 3 -22 115 121 117 169 141 338 173 30 6 28
20 -11 84 -42 70 -114 125 -201 152 l-68 21 -23 -29 c-64 -82 -62 -81 -81 -62
-16 15 -15 18 3 45 41 59 43 57 -41 50 -54 -4 -76 -2 -73 6 7 21 77 49 132 52
l56 3 84 118 c47 64 83 120 80 122 -10 11 -141 0 -175 -14 -19 -8 -75 -39
-125 -69 -100 -61 -202 -100 -286 -110 -98 -12 -213 30 -295 106 l-30 29 -205
-83 c-336 -138 -405 -178 -457 -266 -27 -46 -27 -46 -30 -17 -7 60 8 97 60
147 28 27 49 49 47 50 -2 1 -87 4 -189 8 -245 9 -247 10 -376 209 -40 61 -78
112 -84 112 -6 0 -10 -31 -10 -79z m1679 -496 c84 -42 119 -66 146 -100 43
-52 61 -105 45 -135 -14 -26 -21 -21 -70 45 -40 54 -129 124 -207 164 -46 23
-115 27 -159 11 -28 -11 -54 1 -54 25 0 20 70 44 132 44 49 1 71 -6 167 -54z
m231 10 c-7 -9 -32 -29 -54 -46 -36 -27 -36 -26 9 15 50 47 68 59 45 31z"/>
<path d="M2 845 c0 -16 2 -22 5 -12 2 9 2 23 0 30 -3 6 -5 -1 -5 -18z"/>
<path d="M4837 755 c-68 -107 -182 -218 -284 -277 -40 -23 -57 -40 -72 -73
-76 -173 -258 -326 -443 -375 -27 -7 -48 -17 -48 -21 0 -14 78 -11 83 4 4 9 7
9 18 0 10 -10 78 -13 269 -13 l255 0 75 86 c41 47 80 94 88 105 17 24 29 24
42 -1 12 -23 0 -45 -78 -137 l-44 -53 131 0 131 0 -41 52 c-125 159 -163 357
-94 501 30 65 71 99 129 107 l40 5 -58 65 c-32 36 -61 66 -64 67 -4 2 -20 -17
-35 -42z"/>
<path d="M17 692 c-10 -10 -17 -35 -17 -55 0 -31 8 -43 56 -89 31 -29 95 -99
142 -155 47 -57 87 -103 89 -103 2 0 -15 36 -39 80 -30 55 -47 78 -57 75 -14
-6 -81 51 -81 68 0 5 11 7 25 5 14 -3 25 -3 25 0 0 6 -121 192 -125 192 -1 0
-9 -8 -18 -18z"/>
<path d="M4943 611 c-48 -30 -75 -92 -81 -183 -2 -42 -1 -89 2 -104 7 -26 8
-25 99 63 51 49 107 101 125 115 65 53 33 113 -66 124 -36 4 -54 1 -79 -15z"/>
<path d="M3500 581 c-8 -5 -83 -28 -167 -50 -342 -93 -459 -146 -580 -267 -81
-79 -129 -157 -149 -236 l-6 -28 235 0 235 0 21 36 c12 19 21 38 21 41 0 3
-58 3 -130 0 -71 -3 -132 -2 -135 3 -6 10 87 46 158 62 27 5 72 7 99 4 47 -7
51 -5 94 33 68 60 137 78 324 84 l55 2 32 60 c18 33 33 54 33 47 0 -7 9 -31
19 -53 11 -21 16 -37 11 -34 -4 3 -14 -9 -21 -26 -19 -48 -79 -123 -131 -165
l-46 -38 21 -28 21 -28 185 2 c225 4 226 5 126 106 -37 37 -79 85 -94 107 -37
55 -81 160 -81 195 0 17 -13 44 -34 69 -19 22 -44 57 -56 76 -22 36 -34 41
-60 26z m-720 -446 c29 -15 57 -52 46 -62 -7 -7 -146 47 -146 57 0 22 61 25
100 5z"/>
<path d="M0 252 l0 -252 155 0 154 0 10 38 c6 20 11 57 11 82 0 45 -1 46 -165
214 l-165 169 0 -251z"/>
<path d="M5001 336 l-114 -115 34 -56 c51 -86 132 -165 169 -165 l30 0 0 225
c0 124 -1 225 -3 225 -1 0 -54 -51 -116 -114z"/>
<path d="M3743 361 l-22 -19 31 -43 c32 -46 66 -85 154 -181 l52 -57 111 49
c61 26 128 62 149 78 46 37 132 128 132 140 0 5 -37 -2 -82 -15 -73 -22 -98
-24 -208 -21 -132 4 -133 4 -290 85 -3 1 -15 -6 -27 -16z"/>
<path d="M3519 216 c-3 -3 -45 -10 -94 -16 -76 -9 -195 -48 -195 -63 0 -2 31
-2 69 1 52 3 77 0 102 -12 l33 -17 55 56 c31 30 51 55 45 55 -6 0 -13 -2 -15
-4z"/>
<path d="M392 64 c-7 -31 -10 -59 -8 -61 2 -2 32 -3 67 -1 l64 3 -56 58 -56
59 -11 -58z"/>
<path d="M3249 66 c-77 -17 -85 -21 -92 -45 -5 -21 -2 -21 130 -21 95 0 132 3
127 11 -7 12 -95 70 -103 68 -4 -1 -31 -7 -62 -13z m101 -16 c13 -8 13 -10 -2
-10 -9 0 -20 5 -23 10 -8 13 5 13 25 0z"/>
<path d="M840 15 c0 -8 4 -15 10 -15 5 0 7 7 4 15 -4 8 -8 15 -10 15 -2 0 -4
-7 -4 -15z"/>
</g>
</svg>